<?xml version="1.0" encoding="UTF-8" standalone="no"?>
<!-- Created with Inkscape (http://www.inkscape.org/) -->

<svg
   xmlns:svg="http://www.w3.org/2000/svg"
   xmlns="http://www.w3.org/2000/svg"
   version="1.1"
   width="792"
   height="612"
   viewBox="0 0 792 612"
   id="Layer_1"
   xml:space="preserve"><defs
   id="defs16" />
<g
   id="g3">
	<g
   id="XMLID_1_">
		<g
   id="g6">
			<path
   d="m 766.15,444.9 c 0.659,1.75 0.96,3.52 0.529,5.56 -0.489,-0.96 -1.899,-2.4 -2.27,-3.1 0.53,8.409 -2.01,18.8 -4.28,25.92 -0.12,-0.71 -0.51,-2.271 -0.52,-3.57 0.02,8.36 1.239,15.33 2,22.94 0.87,8.8 -0.261,18.649 4,26.72 2.08,3.939 5.67,5.17 7.22,9.25 1.97,5.2 -1.5,10.59 -1.22,15.38 0.22,3.95 1.819,7 2,11.31 0.199,4.98 -1.011,9.66 -0.771,14.591 -6.49,0.75 -9.54,6.08 -15.1,8.3 -4.721,1.87 -12.12,0.27 -16.98,-0.17 -4.569,-0.4 -13.96,-0.601 -15.85,-5.351 -1.311,-3.26 1.25,-4.84 2.03,-7.199 2.119,-6.4 4.54,-11.48 1.97,-17.521 -1.561,-3.65 -3.11,-3.99 -2.8,-8.54 0.409,-5.97 1.81,-13.62 3.5,-19.4 1.8,-6.18 4.6,-9.829 4.659,-16.689 0.051,-4.79 0.28,-12.24 -1.3,-16.7 -0.859,-2.439 -3.89,-4.399 -5.22,-6.8 -1.55,-2.8 -2.08,-6.15 -3.64,-8.98 -4.221,-7.64 -11.181,-13.449 -14.5,-21.68 -2.561,-6.34 -4.021,-10.68 -8.181,-15.689 -2.33,-2.79 -5.38,-4.7 -5.819,-8.61 -1.11,10.06 5.8,18.649 3.18,29.649 -2.61,10.971 -7.73,22.98 -11.32,33.461 -3.779,11.069 -4.62,22.56 -7.34,33.989 -2.63,11.011 -4.18,21.71 -5.71,32.86 -0.689,5.02 0.92,10.63 -0.15,15.84 -1.069,5.21 -4.76,7.95 -7.35,12.65 -3.29,5.97 -3.18,7.97 -9.979,10.68 -1.66,0.66 -25.851,8.07 -25.9,7.22 -0.521,-9.25 0.86,-16.439 3.729,-24.75 1.811,-5.22 1.69,-12.34 5.671,-16.85 3.84,-4.36 8.93,-5.48 12.329,-11.16 3.41,-5.67 3.101,-10.36 3.511,-17.01 0.77,-12.82 3.95,-26.431 1.88,-39.7 -2.08,-13.35 -1.42,-27.44 -3.88,-40.42 -1.05,-5.521 -1.24,-10.95 -2.511,-16.15 -1.51,-6.189 -3.899,-11.06 -3.6,-17.729 -1.97,-0.08 -3.86,-1.42 -5.78,-1.57 -0.39,-6.56 -1.859,-16.13 -9.609,-8.04 -4.17,4.351 -1.45,14.24 -11.07,10.05 -1.61,-4.319 -0.39,-9.8 -2.07,-13.92 -2.14,-5.27 -4.699,-4.46 -9.55,-5.93 -8.979,-2.73 -14.12,-12.99 -24.5,-8.72 -8.7,3.58 -15.859,10.26 -24.63,14.02 -8.7,3.72 -17.08,7.4 -25.87,10.141 -9.37,2.92 -20.39,6.229 -30.13,2.689 -10.26,-3.729 -20.65,-3.5 -32.68,-3.5 -7,0 -9.86,-1.6 -16.141,-3.82 -5.949,-2.1 -12.949,-1.529 -18.68,-2.699 -11.18,-2.29 -20.62,-5.17 -32,-2.971 -9.91,1.92 -19.07,4.03 -27.99,7.99 -6.86,3.04 -6.57,2.64 -9.7,9.7 -2.07,4.68 -3.08,9.03 -4.2,13.76 -2.59,11 -3.96,22.311 -3.96,34.04 0,6.03 -0.37,10.86 -1.84,16.15 -2.14,7.68 -5.27,15.72 -5.21,23.87 0.03,3.949 1.08,8.329 1.82,12.229 1.7,8.91 4.71,17.9 3.23,27.08 -0.94,5.77 -4.39,7.58 -7.2,11.47 -6.67,9.181 0.15,23.12 -5.97,32.7 -6.05,9.45 -17.44,8.8 -28.17,9.85 -7.12,0.69 -10.92,1.391 -12,-5.35 -0.97,-6.1 1.12,-10.14 2.5,-15.49 2.07,-7.97 2.91,-7.41 8.34,-13.029 2.67,-2.771 5.41,-6.641 6.5,-10.15 1.41,-4.55 1.29,-10.25 2.51,-14.81 1.38,-5.141 2.24,-11.141 2.84,-16.54 0.63,-5.74 0.65,-11.49 0.65,-17.32 0,-7.5 -2.81,-10.65 -4.69,-17.33 -3.3,-11.7 1.18,-23.44 0.69,-34.66 -0.19,-4.24 -3.04,-7.83 -3.32,-12.14 -11.07,0.88 -24.37,-6.91 -33.27,-11.25 -7.93,-3.88 -9.48,-4 -15.3,-11.73 -3.6,-4.77 -6.52,-9.239 -10.03,-13.97 -3.97,-5.34 -9.43,-10.22 -12.55,-16 -3.15,-5.84 -2.73,-12.38 -6.37,-18.03 -3.43,-5.33 -16.86,-26.5 -13.2,-30.41 -4.12,-5.899 -4.86,-14.64 -8.63,-20.979 -3.15,-5.3 -9.58,-16.15 -16.22,-17.63 -3.71,-0.83 -16.43,3.37 -20.78,4.78 -9.14,2.96 -12.82,5.539 -22.98,4.02 -8.11,-1.21 -14.25,-3.02 -21.22,-6.8 -6.23,-3.39 -5.98,0.229 -7.8,-7.2 -0.63,-2.57 0.4,-9.05 1.22,-11.56 2.48,-7.51 7.9,-12.2 11.55,-18.94 4.23,-7.81 3.68,-16.9 3.23,-25.72 -0.22,-4.28 0.1,-9.63 -1,-13.75 -1.2,-4.46 -4.29,-8.26 -4.15,-12.88 -0.66,-0.64 -1.9,0.14 -2.71,-0.29 -0.2,-0.77 0.23,-2.1 -0.29,-2.71 -21.78,1.36 -50.84,-24.61 -31.18,-44.17 -14.24,-1.24 -25.78,-12.7 -35.64,-21.01 -10.15,-8.54 -14.94,-22.96 -21.8,-34.19 -7.08,-11.59 -9.73,-25.23 -12.98,-38.03 -2.43,-9.53 -5.84,-27.68 -12.88,-34.87 33.17,22 30.38,71.08 63.43,92.4 20.41,13.16 42.75,14.21 65.96,17.16 25.24,3.2 49.78,5.22 75.24,6.56 21.6,1.14 50.47,-8.94 65.36,-24.92 15.22,-16.33 19.06,-40.06 30.67,-58.66 5.33,-8.54 11.9,-14.44 19.72,-20.37 7.25,-5.49 11.06,-16.15 21.89,-14.1 -7.24,2.8 -23.91,26.31 -27.67,35.05 -6.13,14.27 -8.22,30.32 -12.92,45.05 -9.27,29.05 -28.81,57.19 -64.05,55.95 l -0.18,0.26 c 6.92,4.75 17.65,5.22 25.58,5.04 9.94,-0.22 19.26,0.05 29.25,0.03 16.92,-0.03 33.21,1.59 49.88,4 15.03,2.17 30.18,8.92 44.28,11.71 13.44,2.65 27.86,1.01 41.89,1.63 27.36,1.2 57.87,3.33 83.95,-3.48 12.24,-3.2 21.86,-4.53 34.68,-5.19 11.061,-0.57 21.69,-3.63 32.671,-4.68 6.239,-0.6 8.869,-0.94 14.17,-3.15 4.42,-1.85 9.09,-3.54 13.87,-5.32 10.01,-3.73 22.26,-4.48 32.09,-0.35 9.93,4.18 21.529,4.12 31.85,6.2 5.7,1.15 10.12,4.49 15.35,6.63 4.19,1.71 8.851,2.42 12.801,4.54 6.87,3.67 4.64,9.76 10.54,13.98 2.18,1.57 5.37,1.27 7.5,3.27 2.449,2.31 4.08,7.68 5.159,10.88 1.73,5.14 4.48,8.53 6,13.33 1.631,5.14 1.73,12.07 2,17.48 0.671,13.33 -1.329,26.36 -1.329,39.86 0,13.33 0,26.66 0,40 0,11.95 -3.16,23.1 -2.03,35.33 1.5,16.33 2.45,37.85 12.64,51.13 -0.67,-0.47 -1.21,-0.78 -1.89,-1.1 2.68,5.68 2.439,12.59 4.609,18.63 1.66,4.62 5.78,9.609 4.54,14.67 -1.958,-1.913 -4.918,-3.963 -6.658,-6.433 -0.341,-0.891 -0.771,-1.78 -1.261,-2.7 0.221,0.96 0.671,1.86 1.261,2.7 z m -44.56,-75.57 c 1.23,13.32 7.4,23.7 12.86,35.3 2.18,-4.22 0.229,-9.76 1.16,-14.63 0.949,-4.97 1.56,-10.66 2.649,-16.02 1.061,-5.221 3.561,-9.141 4.01,-14.681 0.391,-4.75 -0.01,-9.7 0,-14.47 0.03,-14.04 -2,-28.021 -2,-42.31 0,-9.14 0,-18.28 0,-27.42 -1.64,2.24 -3.59,4.39 -4.81,6.88 -2.64,5.39 -3.85,11.49 -5.33,17.21 -2.87,11.08 -5.43,22.23 -7.88,33.67 -2.649,12.411 -1.869,23.331 -0.659,36.471 z"
   id="path8" />
			<path
   d="m 764.89,442.2 c 0.49,0.92 0.92,1.81 1.261,2.7 -0.591,-0.84 -1.041,-1.74 -1.261,-2.7 z"
   id="path10" />
		</g>
		<g
   id="g12">
		</g>
	</g>
</g>
</svg>