<?xml version="1.0" standalone="no"?>
<!DOCTYPE svg PUBLIC "-//W3C//DTD SVG 20010904//EN"
 "http://www.w3.org/TR/2001/REC-SVG-20010904/DTD/svg10.dtd">
<svg version="1.0" xmlns="http://www.w3.org/2000/svg"
 width="1536.000000pt" height="857.000000pt" viewBox="0 0 1536.000000 857.000000"
 preserveAspectRatio="xMidYMid meet">
<metadata>
Created by potrace 1.16, written by Peter Selinger 2001-2019
</metadata>
<g transform="translate(0.000000,857.000000) scale(0.100000,-0.100000)"
fill="#000000" stroke="none">
<path d="M6230 8560 c-47 -5 -196 -16 -332 -25 -396 -25 -555 -59 -1098 -237
-321 -105 -506 -216 -965 -584 -223 -178 -452 -421 -622 -659 -89 -125 -404
-624 -484 -766 -65 -115 -96 -150 -148 -168 -79 -26 -173 -10 -351 61 -286
114 -462 169 -693 217 -190 39 -250 45 -335 32 -157 -24 -297 -94 -524 -261
-89 -66 -118 -95 -233 -240 -148 -185 -173 -225 -205 -325 -32 -99 -42 -116
-124 -208 -102 -115 -108 -129 -114 -269 -3 -75 -1 -118 5 -118 6 0 23 18 38
41 16 22 42 47 58 56 17 8 77 51 135 94 128 97 173 112 322 112 111 0 136 -7
367 -92 166 -61 331 -76 464 -42 99 26 221 82 246 115 12 15 24 23 27 17 15
-24 104 -53 164 -53 59 0 71 -5 55 -22 -4 -4 -8 -36 -10 -73 -2 -64 -2 -65 17
-48 18 17 19 16 22 -31 3 -45 5 -49 28 -49 20 0 26 -6 28 -30 2 -17 12 -56 23
-88 10 -31 19 -63 19 -70 0 -7 9 -20 20 -30 11 -9 20 -24 20 -32 0 -30 30 -75
61 -90 16 -9 34 -26 39 -39 16 -42 157 -146 198 -146 15 0 42 -16 68 -40 47
-43 77 -50 93 -23 9 17 11 17 38 -3 39 -28 65 -37 73 -24 5 8 22 4 53 -11 39
-19 50 -21 69 -10 19 10 30 9 60 -4 55 -23 146 -17 151 10 1 6 11 8 22 6 54
-11 80 -6 83 15 3 19 8 20 60 16 l57 -4 -23 25 -24 25 86 3 c63 3 90 8 102 21
13 13 15 20 6 31 -9 11 -2 16 36 26 41 10 50 17 60 45 11 31 16 34 65 39 87 9
293 87 313 118 3 6 0 15 -7 20 -7 4 -11 10 -8 13 3 4 59 18 123 32 100 22 125
24 162 15 23 -6 54 -11 68 -11 28 0 112 -42 353 -178 295 -165 469 -249 588
-282 80 -23 144 -50 235 -99 69 -38 158 -85 199 -106 41 -20 135 -73 210 -118
271 -161 379 -203 550 -210 l35 -2 12 -71 c14 -86 38 -138 74 -164 31 -22 40
-18 40 19 0 25 2 25 40 -16 23 -25 46 -40 54 -37 10 4 32 -29 73 -108 32 -62
95 -162 141 -223 123 -164 127 -178 127 -420 0 -216 -8 -260 -62 -332 l-24
-33 31 6 c18 4 36 1 46 -7 10 -8 18 -9 22 -2 11 16 48 33 73 33 21 0 22 -2 16
-82 -6 -94 -2 -85 -223 -484 -73 -133 -143 -263 -156 -290 -46 -98 -202 -381
-254 -461 -29 -45 -109 -156 -177 -245 -68 -90 -142 -190 -165 -224 -83 -123
-135 -157 -504 -324 -282 -127 -355 -151 -531 -170 -54 -5 -130 -21 -169 -35
-39 -14 -79 -25 -87 -25 -68 0 -171 -73 -171 -121 0 -32 24 -32 77 1 56 35
122 48 156 32 40 -19 69 -21 181 -11 223 19 491 62 599 95 10 3 -2 -13 -27
-36 -37 -34 -46 -49 -46 -76 0 -41 17 -44 50 -9 30 32 63 41 273 71 220 31
229 34 266 93 17 26 54 69 81 95 28 26 68 74 89 105 99 145 166 159 235 48 9
-15 27 -32 40 -37 16 -6 26 -20 30 -43 3 -19 15 -42 25 -52 19 -16 20 -15 30
22 31 112 -20 241 -123 312 l-45 31 14 41 c8 23 15 50 15 61 0 26 156 320 375
708 94 168 209 375 255 460 46 85 127 223 179 305 52 83 126 211 164 285 l69
134 -5 116 c-5 126 -38 269 -135 590 -39 128 -54 198 -67 308 -9 79 -23 164
-30 190 -15 47 -9 61 23 62 26 0 140 43 221 82 l84 42 126 -44 c69 -23 136
-49 148 -56 26 -16 61 -18 83 -4 12 7 12 12 -4 29 -19 21 -19 21 15 21 l34 0
-25 20 -25 21 30 -7 c17 -3 37 -8 45 -10 18 -5 -33 38 -72 63 -30 18 -38 36
-13 27 8 -4 37 -3 63 1 l47 7 -35 29 c-34 29 -34 29 -9 29 32 0 42 9 27 27
-19 24 -1 25 46 4 25 -11 46 -18 46 -15 0 3 -7 19 -16 35 -8 17 -13 34 -10 37
4 3 28 -5 54 -18 26 -13 59 -30 75 -37 l27 -12 -15 29 c-19 36 -19 40 0 40 8
0 15 7 15 15 0 9 9 15 23 15 13 0 32 9 42 20 25 27 35 26 88 -15 49 -37 67
-43 67 -22 0 9 10 12 30 9 21 -3 32 0 36 12 5 14 8 14 27 1 39 -27 51 -19 29
19 l-20 34 22 6 c12 3 26 19 33 36 11 29 14 31 50 24 57 -10 92 -31 153 -93
43 -43 60 -69 74 -114 15 -47 22 -57 35 -52 58 25 59 23 37 -82 -14 -67 -35
-242 -56 -463 -6 -63 -24 -191 -39 -285 -16 -93 -41 -267 -56 -385 -15 -118
-42 -278 -61 -355 -67 -276 -78 -444 -39 -560 19 -55 237 -388 292 -447 20
-20 70 -55 112 -77 42 -23 105 -66 140 -96 36 -30 81 -60 100 -66 20 -6 63
-30 96 -53 33 -23 80 -54 105 -69 25 -14 78 -55 117 -91 86 -77 151 -103 221
-90 24 5 43 14 44 19 1 6 -30 27 -68 48 -65 36 -124 82 -124 98 0 3 14 12 31
19 54 23 116 130 76 130 -7 0 -31 -13 -53 -30 -21 -16 -42 -30 -46 -30 -4 0
-28 14 -54 32 l-47 31 22 18 c32 26 26 47 -22 70 -37 18 -48 31 -75 90 -22 46
-57 95 -106 147 -60 65 -77 90 -96 146 -17 52 -30 73 -62 99 -54 42 -146 168
-165 224 -12 35 -23 48 -49 59 -73 31 -21 69 78 58 37 -4 85 -20 126 -40 76
-38 97 -41 124 -17 17 15 21 15 51 0 17 -9 42 -24 55 -33 21 -16 22 -15 22 5
0 32 -26 87 -53 114 -15 16 -79 42 -188 77 -90 30 -177 63 -193 74 -16 10 -40
44 -53 73 l-25 55 17 156 c17 161 27 192 65 192 10 0 25 -11 34 -25 9 -14 24
-25 34 -25 18 0 42 18 42 32 0 17 -66 81 -104 100 -23 11 -42 22 -44 23 -1 1
2 24 8 51 6 27 15 85 21 129 34 284 114 727 155 861 51 162 62 294 40 459 -9
66 -16 127 -16 136 0 10 18 -2 50 -33 53 -51 75 -61 65 -29 -3 11 -3 30 0 44
5 18 13 24 33 23 28 -1 32 10 17 47 -7 17 -4 18 41 12 27 -4 66 -11 88 -17 41
-10 57 -5 38 14 -22 22 -13 25 59 24 66 -1 74 -3 106 -33 37 -36 89 -45 99
-18 4 9 19 15 35 15 16 0 32 6 34 13 3 6 -4 41 -14 76 -17 54 -18 66 -6 77 7
8 18 14 24 14 14 0 14 6 1 30 -19 35 8 40 115 20 54 -11 100 -18 102 -16 2 2
-9 13 -25 25 -30 21 -87 89 -80 96 2 2 42 -6 88 -19 97 -26 160 -38 160 -29 0
4 -7 15 -17 25 -15 17 -14 18 19 18 33 0 55 18 50 43 -4 15 13 5 102 -65 112
-88 105 -84 138 -92 21 -5 28 -2 33 14 3 11 13 20 21 20 8 0 14 5 14 11 0 5 4
8 9 4 6 -3 15 4 22 17 10 19 8 25 -20 50 l-31 28 25 0 c33 0 32 20 -5 55 -16
16 -30 32 -30 36 0 4 16 10 36 14 33 6 35 8 21 23 -14 16 -14 19 6 38 22 21
23 22 46 3 23 -19 61 -25 74 -13 4 4 23 8 44 9 93 5 146 18 150 36 6 23 35 18
108 -19 34 -17 67 -26 104 -26 51 -1 55 1 90 42 20 23 44 42 52 42 9 0 63 -13
120 -30 125 -36 199 -40 199 -10 0 27 -30 52 -87 72 -53 19 -118 68 -112 85 3
7 42 -1 114 -24 83 -26 122 -33 159 -30 84 8 82 46 -4 67 -56 13 -141 79 -104
80 12 0 45 -5 74 -10 44 -8 66 -7 124 10 39 11 97 22 129 26 43 5 57 10 53 20
-3 8 1 14 10 14 8 0 35 21 60 46 37 39 42 49 32 61 -11 14 9 15 170 12 168 -4
181 -3 176 13 -3 10 4 26 15 37 18 18 34 21 109 21 48 0 98 3 111 7 l24 6 -23
17 -23 18 31 7 c36 7 41 19 15 30 -15 6 -13 9 12 20 37 16 37 16 -133 49 -74
15 -185 43 -249 64 l-115 37 154 1 c84 0 216 8 293 17 111 12 177 14 310 7 94
-5 321 -13 505 -20 582 -19 674 -26 781 -59 86 -27 336 -91 354 -91 4 0 1 7
-6 17 -13 15 -11 16 16 8 17 -4 51 -9 78 -10 35 -2 59 -12 95 -37 71 -51 76
-54 69 -35 -5 14 -2 15 20 6 14 -5 27 -8 30 -6 4 5 -70 74 -107 99 -42 29 62
-13 189 -77 110 -55 111 -55 111 -30 0 17 6 25 17 25 13 0 11 6 -12 30 -16 16
-38 33 -49 36 -65 20 -245 128 -233 140 2 2 62 -23 133 -56 139 -65 164 -71
164 -41 0 15 5 18 23 13 22 -5 22 -5 3 16 -24 27 -17 36 18 23 34 -13 33 -3
-1 26 -27 22 -27 22 -5 23 51 0 10 61 -55 80 -41 12 -395 189 -378 189 44 2
197 -46 285 -88 102 -49 137 -61 125 -41 -3 5 11 3 32 -4 59 -20 103 -27 103
-15 0 5 -29 28 -65 51 -36 22 -64 42 -63 44 2 1 30 -4 63 -12 80 -18 85 -17
50 11 -33 27 -30 30 10 15 23 -9 25 -8 15 9 -5 11 -47 40 -92 66 l-83 46 63
-5 c55 -4 62 -2 58 12 -16 58 -17 82 -4 77 15 -6 15 11 2 83 -4 21 -2 32 5 32
7 0 10 4 7 9 -4 5 0 11 6 14 10 3 8 10 -6 26 -11 11 -16 21 -13 21 4 0 -2 14
-12 31 -23 37 -18 59 13 59 15 1 9 7 -24 24 -25 13 -45 30 -45 37 0 8 -33 21
-89 34 -67 15 -96 27 -117 48 -22 21 -44 30 -104 39 -71 11 -74 12 -48 23 26
11 23 13 -42 19 -215 23 -343 56 -394 102 -55 49 -105 59 -206 38 l-83 -18
-104 32 c-123 38 -148 39 -298 11 -94 -17 -131 -20 -200 -13 -47 4 -128 8
-180 9 -52 0 -120 4 -150 9 -47 7 -65 4 -125 -18 -90 -35 -183 -47 -265 -36
-340 45 -570 70 -696 76 -148 6 -150 6 -269 54 -66 26 -141 53 -167 59 -27 6
-74 24 -105 40 -90 45 -163 65 -229 65 l-60 0 65 59 c36 32 71 72 77 88 17 48
58 69 137 69 83 0 87 14 24 74 -86 82 -301 182 -523 242 -54 15 -164 49 -244
75 -198 66 -400 113 -620 144 -102 14 -304 48 -450 75 -314 59 -480 85 -650
101 -134 13 -561 17 -960 9 -264 -5 -337 2 -460 45 -240 85 -311 107 -421 129
-68 14 -171 30 -229 35 -148 14 -708 21 -810 11z"/>
</g>
</svg>
